<svg xmlns="http://www.w3.org/2000/svg" width="94.329" height="100" viewBox="3.448 0 94.329 100" enable-background="new 3.448 0 94.329 100"><path d="M84.367 39.313v6.176c-.066.782-.242 1.537-.513 2.293-.216.659-.498 1.307-.863 1.941-2.858 5.315-9.954 9.752-19.378 12.379h-.017c-5.824 1.62-12.541 2.536-19.689 2.536s-13.864-.916-19.69-2.536h-.013c-9.427-2.629-16.521-7.065-19.381-12.379-.363-.633-.646-1.281-.863-1.941-.27-.756-.445-1.512-.512-2.293v-6.176c0-19.056 13.177-35.037 30.925-39.313 7.673 5.125 13.431 20.54 14.228 39.313.053 1.281.081 2.576.095 3.896 7.254-.417 13.917-1.806 19.474-3.896 1.092-.405 2.144-.837 3.155-1.31-1.241-18.246-7.188-32.864-14.93-37.181 16.239 5.26 27.972 20.5 27.972 38.491zM84.367 52.286v27.484c0 7.176-7.458 13.474-18.719 17.061v-16.482c-2.765.892-5.76 1.606-8.93 2.132v16.482c-4.018.674-8.333 1.037-12.81 1.037-22.346 0-40.458-9.051-40.458-20.229v-27.485c.445 4.033 3.237 7.742 7.728 10.802 1.241.851 2.616 1.646 4.114 2.389h.013c7.336 3.652 17.425 5.906 28.604 5.906 11.18 0 21.267-2.254 28.604-5.906h.015c1.498-.743 2.873-1.539 4.113-2.389 4.489-3.06 7.281-6.769 7.726-10.802z"/><circle cx="59.502" cy="30.125" r="8.092"/><path d="M88.085.33l2.994 6.068 6.698.974-4.846 4.722 1.144 6.671-5.99-3.149-5.99 3.149 1.144-6.671-4.844-4.722 6.695-.974z"/></svg>