<svg xmlns="http://www.w3.org/2000/svg" width="94.329" height="100" viewBox="3.448 0 94.329 100" enable-background="new 3.448 0 94.329 100"><path d="M84.367 39.313v6.176c-.066.78-.242 1.536-.513 2.292-.216.66-.498 1.307-.863 1.94-2.857 5.316-9.953 9.753-19.377 12.38h-.017c-5.824 1.62-12.54 2.536-19.69 2.536s-13.863-.916-19.69-2.536h-.012c-9.427-2.63-16.52-7.065-19.38-12.38-.364-.632-.647-1.28-.864-1.94-.27-.756-.445-1.512-.512-2.293v-6.177C3.448 20.257 16.625 4.276 34.373 0c7.673 5.125 13.43 20.54 14.228 39.313.054 1.28.082 2.576.096 3.896 7.254-.418 13.917-1.807 19.474-3.897 1.092-.405 2.144-.837 3.155-1.31-1.24-18.246-7.188-32.864-14.93-37.18 16.24 5.26 27.972 20.5 27.972 38.49zM84.367 52.286V79.77c0 7.176-7.458 13.474-18.72 17.06V80.35c-2.764.89-5.76 1.605-8.93 2.13v16.483C52.7 99.637 48.386 100 43.908 100 21.563 100 3.45 90.95 3.45 79.77V52.287c.445 4.033 3.237 7.742 7.728 10.802 1.24.85 2.616 1.646 4.114 2.39h.013c7.336 3.65 17.425 5.905 28.604 5.905 11.18 0 21.266-2.254 28.603-5.906h.015c1.498-.743 2.873-1.54 4.113-2.39 4.49-3.06 7.282-6.768 7.727-10.8z"/><circle cx="59.502" cy="30.125" r="8.092"/><path d="M88.085.33l2.994 6.068 6.697.974-4.846 4.722 1.145 6.67-5.99-3.148-5.99 3.15 1.144-6.672-4.845-4.722 6.695-.974z"/></svg>