<?xml version="1.0" encoding="utf-8"?>
<!-- Generator: Adobe Illustrator 15.1.0, SVG Export Plug-In . SVG Version: 6.00 Build 0)  -->
<!DOCTYPE svg PUBLIC "-//W3C//DTD SVG 1.1//EN" "http://www.w3.org/Graphics/SVG/1.1/DTD/svg11.dtd">
<svg version="1.1" id="Layer_1" xmlns="http://www.w3.org/2000/svg" xmlns:xlink="http://www.w3.org/1999/xlink" x="0px" y="0px"
	 width="94.329px" height="100px" viewBox="3.448 0 94.329 100" enable-background="new 3.448 0 94.329 100" xml:space="preserve">
<g>
	<path d="M84.367,39.313v6.176c-0.066,0.782-0.242,1.537-0.513,2.293c-0.216,0.659-0.498,1.307-0.863,1.941
		c-2.858,5.315-9.954,9.752-19.378,12.379h-0.017c-5.824,1.62-12.541,2.536-19.689,2.536s-13.864-0.916-19.69-2.536h-0.013
		c-9.427-2.629-16.521-7.065-19.381-12.379C4.46,49.09,4.177,48.442,3.96,47.782c-0.27-0.756-0.445-1.512-0.512-2.293v-6.176
		C3.448,20.257,16.625,4.276,34.373,0c7.673,5.125,13.431,20.54,14.228,39.313c0.053,1.281,0.081,2.576,0.095,3.896
		c7.254-0.417,13.917-1.806,19.474-3.896c1.092-0.405,2.144-0.837,3.155-1.31c-1.241-18.246-7.188-32.864-14.93-37.181
		C72.634,6.082,84.367,21.322,84.367,39.313z"/>
	<path d="M84.367,52.286v27.484c0,7.176-7.458,13.474-18.719,17.061V80.349c-2.765,0.892-5.76,1.606-8.93,2.132v16.482
		C52.7,99.637,48.385,100,43.908,100c-22.346,0-40.458-9.051-40.458-20.229V52.286c0.445,4.033,3.237,7.742,7.728,10.802
		c1.241,0.851,2.616,1.646,4.114,2.389h0.013c7.336,3.652,17.425,5.906,28.604,5.906c11.18,0,21.267-2.254,28.604-5.906h0.015
		c1.498-0.743,2.873-1.539,4.113-2.389C81.13,60.028,83.922,56.319,84.367,52.286z"/>
	<circle cx="59.502" cy="30.125" r="8.092"/>
	<polygon points="88.085,0.33 91.079,6.398 97.777,7.372 92.931,12.094 94.075,18.765 88.085,15.616 82.095,18.765 83.239,12.094 
		78.395,7.372 85.09,6.398 	"/>
</g>
</svg>
